<svg xmlns="http://www.w3.org/2000/svg" viewBox="4572 1346 21759 18765" role="img" aria-label="OshSU Olymp">
  <g>
    <path fill="#A00E07" d="M10336.16 13240.67c0,1020.51 335.81,1944.71 876.76,2761.18 473.94,715.33 1187.37,1301.92 1952.78,1685.22 1614.35,808.51 3642.95,624.68 5089.48,-421.8 229.41,-165.95 364.59,-306.92 499.5,-409.96 64.64,-49.33 97.2,-85.74 157.49,-145.71l538.61 -650.71c508.76,-688.94 913.01,-1769.8 913.01,-2724.93l0 -4104.33 -2471.91 0 0 3824.49c0,961.9 -429.4,1740.58 -1063.21,2178.3 -713.76,492.97 -1582.34,634.11 -2415.17,297.31 -806.09,-325.98 -1359.96,-1004.21 -1544.91,-1859.82 -83.32,-385.42 -37.19,-3122.82 -37.19,-3927.26 0,-220.54 44.54,-513.02 -69.99,-513.02l-2425.25 0 0 4011.04z"/>
    <path fill="#A00E07" d="M13600.97 7037.53l0 93.29 -629.65 0c10.8,-129.62 120.7,-171.27 203,-240.1l486.88 -445.93c84.89,-108.88 137.89,-142.81 172.98,-293.47 190.87,-44.43 333.52,-10.99 466.12,-326.72 54.67,-130.09 24.59,-162.98 163.52,-162.98 80.98,0 92.82,116.62 279.84,116.62 200.02,0 13.2,-114.74 279.04,-47.43 118.83,30.08 108.88,-32.03 233.99,-115.79 201.92,47.02 36.88,139.89 303.17,139.89 129.07,0 46.66,-209.88 256.48,-209.88 97.64,0 144.63,54.04 190.69,112.52 163.3,207.34 374.45,594.22 502.77,733.18 56.58,61.25 99.82,74.97 163.94,139.23 136.56,136.78 185.81,177.38 401.92,227.73 94.64,-141.33 186.6,-121.3 279.92,-0.09 70.79,92 52.06,62.42 169.78,110.07 130.14,52.69 133.5,59.13 184.68,141.79 17.1,27.6 6.06,13.33 27.82,42.14 66.05,87.54 21.01,-30.49 60.73,79.22l-699.6 0c0,-237.78 9.39,-174.85 -64.81,-215.06l-771.39 -301.33c-1206.29,-482.12 -664.98,-411.03 -1807.7,-5.4l-687.93 268.2c-87.53,33.49 -125.98,40.15 -149.42,83.78 -22.23,41.48 -16.77,12.45 -16.77,76.52zm-3264.81 1072.73l0 443.09 2471.91 0 0 -1212.65 979.45 0c0,-350.77 -86.02,-246.57 366.52,-426.37l1195.94 -483.14 1199.29 479.75c451.41,180.52 363.16,89.49 363.16,429.76l979.45 0 0 1212.65 2471.91 0c0,-1016.82 -49.71,-1572.45 -474.05,-2487.61 -324.07,-698.92 -776.39,-1213.67 -1338.88,-1716.04 -105.41,-94.14 -224.24,-178.54 -342.31,-264.03 -68.45,-49.58 -110.98,-75.69 -184.19,-118.96 -74.36,-43.93 -110.58,-76.16 -186.8,-116.4 -855.08,-451.8 -1534.47,-660.6 -2557.54,-660.6 -872.66,0 -1758.71,283.7 -2400.99,653.96 -986.56,568.72 -1578.47,1274.49 -2076.56,2260.96 -240.54,476.37 -466.31,1288.15 -466.31,2005.63z"/>
    <path fill="#A00E07" d="M14114.02 10372.3c0,245.63 62.94,524.01 147.19,692.33 249.79,499.2 1088.77,923.28 1088.77,1453.14 0,183.41 -2.59,361.31 -122.68,506.96 -335.37,406.82 -833.44,132.32 -833.44,-157.16 0,-81.5 -10.71,-279.84 209.88,-279.84 146.31,0 204.92,111.96 233.18,233.18 90.4,-66.21 69.96,-118.11 69.96,-279.84 0,-244.31 -568.49,-619.29 -792.86,-769.57 0,1076.13 -233.62,1975.7 633.42,2491.47 359.74,214.02 863.46,211.46 1223.15,-5.23 317.41,-191.23 615.34,-587.17 615.34,-970.41 0,-814.4 32.06,-1047.26 -542.13,-1626.63 -284.75,-287.34 -693.82,-524.32 -693.82,-1055.19 0,-602.46 578.74,-736.32 844.01,-494.21 171.32,156.36 198.01,517.54 -97.78,517.54 -77.45,0 -119.62,-30.99 -159.34,-73.88 -39.03,-42.08 -25.31,-30.51 -46.41,-70.18l-50.76 -89.15c-28.95,124.38 -46.63,29.44 -46.63,233.21 0,291.43 344.51,496.38 546.18,643.11l246.68 173.08 0 -2215.4 -2471.91 0 0 1142.67z"/>
    <path fill="#A00E07" d="M16142.87 7154.12l-1585.79 0 393.19 -189.86c487.1,-197.26 229.85,-278.6 1092.29,126.92l100.31 62.94zm-2122.14 0c0,108.08 -33.47,233.21 69.96,233.21l2588.53 0 0 -233.21c-158.23,-36.85 -1237.19,-536.38 -1329.24,-536.38 -41.21,0 -577.45,229.02 -666.45,266.37 -115.76,48.64 -213.9,86.71 -328.37,138.05 -91.22,40.87 -244.47,111 -334.43,131.96z"/>
  </g>
</svg>
